<?xml version="1.0" standalone="no"?>
<!DOCTYPE svg PUBLIC "-//W3C//DTD SVG 1.1//EN" "http://www.w3.org/Graphics/SVG/1.1/DTD/svg11.dtd"><svg t="1740649718597"
  class="icon" viewBox="0 0 1024 1024" version="1.1" xmlns="http://www.w3.org/2000/svg" p-id="25977" width="24"
  height="24" xmlns:xlink="http://www.w3.org/1999/xlink">
  <path
    d="M535.486239 112.733945C740.427156 112.733945 906.568807 277.814018 906.568807 481.46789c0 89.867743-32.354642 172.229284-86.128734 236.205798L647.985321 960.117431c-44.097761 62.00367-130.113761 76.508771-192.108037 32.411009a137.760881 137.760881 0 0 1-32.411009-32.411009L253.49167 721.140257C197.942018 656.694018 164.40367 572.970275 164.40367 481.46789 164.40367 277.814018 330.545321 112.733945 535.486239 112.733945z"
    fill="#6160F4" opacity=".1" p-id="25978"></path>
  <path
    d="M483.816514 18.788991c207.533798 0 375.779817 167.175046 375.779816 373.393615 0 91.013872-32.768 174.418202-87.218495 239.202642l-176.052844 247.507376c-44.107156 62.00367-130.113761 76.518165-192.117431 32.411009a137.760881 137.760881 0 0 1-32.41101-32.411009L198.289615 634.945761C142.016587 569.682202 108.036697 484.868697 108.036697 392.182606 108.036697 185.964037 276.282716 18.788991 483.816514 18.788991z m0 75.155963c-166.132257 0-300.623853 133.636697-300.623853 298.237652 0 70.449321 24.613578 136.94356 68.908623 190.022458l3.118973 3.673248 2.282862 2.658642 175.536147 246.793395a62.604917 62.604917 0 0 0 100.643229 1.888293l1.390386-1.878899 177.819009-249.987523 1.954055-2.32044A295.259596 295.259596 0 0 0 784.440367 392.182606C784.440367 227.581651 649.948771 93.944954 483.816514 93.944954z"
    fill="#655CF4" p-id="25979"></path>
  <path
    d="M479.062899 247.112807c78.810422 0 142.702385 63.882569 142.702385 142.702386 0 78.810422-63.891963 142.702385-142.702385 142.702385-78.819817 0-142.702385-63.891963-142.702385-142.702385 0-78.819817 63.882569-142.702385 142.702385-142.702386z m0 75.155964a67.546422 67.546422 0 1 0 0 135.092844 67.546422 67.546422 0 0 0 0-135.092844z"
    fill="#6160F4" p-id="25980"></path>
</svg>