<?xml version="1.0" standalone="no"?><!DOCTYPE svg PUBLIC "-//W3C//DTD SVG 1.1//EN" "http://www.w3.org/Graphics/SVG/1.1/DTD/svg11.dtd"><svg t="1729301453324" class="icon" viewBox="0 0 1075 1024" version="1.1" xmlns="http://www.w3.org/2000/svg" p-id="38541" width="33.59375" height="32" xmlns:xlink="http://www.w3.org/1999/xlink"><path d="M526.848 512m-512 0a512 512 0 1 0 1024 0 512 512 0 1 0-1024 0Z" fill="#FFFFFF" p-id="38542"></path><path d="M526.848 1024C244.0704 1024 14.848 794.7776 14.848 512S244.0704 0 526.848 0s512 229.2224 512 512-229.2224 512-512 512z m54.528-565.0432l-1.792-1.7408a102.1952 102.1952 0 0 0-11.008-9.5232l-35.4304 35.4304c4.1472 2.4576 8.0896 5.4272 11.6224 8.9088l1.8432 1.792a58.2656 58.2656 0 0 1 0 82.3296l-96.9216 96.8704a58.368 58.368 0 0 1-82.3296 0l-1.8432-1.792a58.2656 58.2656 0 0 1 0-82.2784l43.8272-43.8272A149.6576 149.6576 0 0 1 398.4896 486.4l-67.84 67.6864a107.776 107.776 0 0 0 0 152.064l1.792 1.792a107.8784 107.8784 0 0 0 152.064 0l96.8704-96.9216a107.9296 107.9296 0 0 0 0-152.064z m141.4144-141.312l-1.8432-1.8432a107.8272 107.8272 0 0 0-152.064 0L472.064 412.7232a107.8272 107.8272 0 0 0 0 152.064l1.792 1.7408c3.5328 3.4304 7.2192 6.6048 11.008 9.5232l35.4816-35.4816a57.856 57.856 0 0 1-11.6224-8.9088l-1.792-1.7408a58.3168 58.3168 0 0 1 0-82.432l96.9216-96.8192a58.2144 58.2144 0 0 1 82.2784 0l1.792 1.792a58.2656 58.2656 0 0 1 0 82.3296l-43.776 43.8272c7.68 18.7904 11.264 38.8096 10.8544 58.7776l67.7888-67.7888a107.776 107.776 0 0 0 0-151.9616z" fill="#1195DB" p-id="38543"></path></svg>