<?xml version="1.0" standalone="no"?><!DOCTYPE svg PUBLIC "-//W3C//DTD SVG 1.1//EN" "http://www.w3.org/Graphics/SVG/1.1/DTD/svg11.dtd"><svg t="1729301361429" class="icon" viewBox="0 0 1024 1024" version="1.1" xmlns="http://www.w3.org/2000/svg" p-id="30845" width="32" height="32" xmlns:xlink="http://www.w3.org/1999/xlink"><path d="M512 512m-512 0a512 512 0 1 0 1024 0 512 512 0 1 0-1024 0Z" fill="#07C160" p-id="30846"></path><path d="M865.031314 598.879086c0-98.962286-95.9488-179.039086-214.293943-179.039086S436.458057 499.9168 436.458057 598.893714c0 98.596571 95.934171 178.688 214.279314 179.039086a264.981943 264.981943 0 0 0 70.290286-10.327771c1.653029-0.438857 1.506743-0.438857 5.822172-1.272686 4.315429-0.848457 8.060343 1.272686 11.322514 2.998857l46.2848 27.530971c2.135771 1.155657 3.393829 1.726171 5.149257 1.726172a6.919314 6.919314 0 0 0 6.846171-6.875429c0.087771-2.048-0.555886-3.657143-1.067885-5.368685a913.2032 913.2032 0 0 1-9.216-35.957029 23.625143 23.625143 0 0 1-0.643657-6.509714c0-3.554743 1.828571-7.3728 5.792914-10.708115 44.836571-32.036571 73.713371-80.559543 73.713371-134.275657z m-287.114971-30.983315c-14.321371 0-26.594743-12.331886-26.594743-28.379428 0-14.379886 12.288-26.711771 26.594743-26.711772 15.989029 0 28.2624 12.331886 28.2624 26.711772 0 16.047543-12.288 28.379429-28.2624 28.379428z m142.277486 0c-14.306743 0-26.594743-12.331886-26.594743-28.379428 0-14.379886 12.288-26.711771 26.594743-26.711772 15.989029 0 28.2624 12.331886 28.2624 26.711772 0 16.047543-12.273371 28.379429-28.2624 28.379428z" fill="#FFFFFF" p-id="30847"></path><path d="M153.6 437.057829c0 64.117029 34.625829 122.338743 89.146514 161.821257 4.008229 2.9696 6.158629 6.363429 6.158629 12.068571 0 1.960229-0.336457 4.096-1.024 6.875429-4.549486 18.724571-9.567086 40.155429-10.283886 43.037257-0.731429 2.8672-1.857829 4.783543-1.711543 6.875428a8.3968 8.3968 0 0 0 8.572343 8.616229c1.711543 0 3.218286-0.702171 5.149257-1.726171l56.568686-32.709486c3.584-2.179657 7.606857-3.291429 10.313143-3.291429 2.706286 0 7.241143 0.833829 10.24 1.565257 26.243657 6.729143 54.564571 10.942171 84.011886 10.327772 4.608 0.6144 9.3184 0.497371 13.7216 0a176.610743 176.610743 0 0 1-8.572343-51.638857c0.2048-108.792686 105.150171-196.432457 234.847085-196.256915 4.447086-0.175543 9.098971-0.029257 13.7216 0-19.3536-102.341486-125.630171-180.750629-253.717942-180.750628-142.072686 0-257.141029 96.109714-257.141029 215.186286z m169.720686-34.435658a34.347886 34.347886 0 0 1-34.289372-34.421028c0-19.017143 15.345371-34.435657 34.289372-34.435657a34.362514 34.362514 0 0 1 34.274743 34.435657c0 19.017143-15.345371 34.421029-34.274743 34.421028z m171.4176 0a34.347886 34.347886 0 0 1-34.274743-34.421028c0-19.017143 15.345371-34.435657 34.274743-34.435657a34.362514 34.362514 0 0 1 34.289371 34.435657c0 19.017143-15.36 34.421029-34.289371 34.421028z" fill="#FFFFFF" p-id="30848"></path></svg>